<svg width="25" height="25" viewBox="0 0 25 25" fill="none" xmlns="http://www.w3.org/2000/svg">
<mask id="mask0_37_822" style="mask-type:alpha" maskUnits="userSpaceOnUse" x="0" y="0" width="25" height="25">
<rect x="0.464844" y="0.052063" width="24" height="24" fill="#D9D9D9"/>
</mask>
<g mask="url(#mask0_37_822)">
<path d="M12.4648 14.0521C12.1815 14.0521 11.944 13.9562 11.7523 13.7646C11.5607 13.5729 11.4648 13.3354 11.4648 13.0521C11.4648 12.7687 11.5607 12.5312 11.7523 12.3396C11.944 12.1479 12.1815 12.0521 12.4648 12.0521C12.7482 12.0521 12.9857 12.1479 13.1773 12.3396C13.369 12.5312 13.4648 12.7687 13.4648 13.0521C13.4648 13.3354 13.369 13.5729 13.1773 13.7646C12.9857 13.9562 12.7482 14.0521 12.4648 14.0521ZM8.46484 14.0521C8.18151 14.0521 7.94401 13.9562 7.75234 13.7646C7.56068 13.5729 7.46484 13.3354 7.46484 13.0521C7.46484 12.7687 7.56068 12.5312 7.75234 12.3396C7.94401 12.1479 8.18151 12.0521 8.46484 12.0521C8.74818 12.0521 8.98568 12.1479 9.17734 12.3396C9.36901 12.5312 9.46484 12.7687 9.46484 13.0521C9.46484 13.3354 9.36901 13.5729 9.17734 13.7646C8.98568 13.9562 8.74818 14.0521 8.46484 14.0521ZM16.4648 14.0521C16.1815 14.0521 15.944 13.9562 15.7523 13.7646C15.5607 13.5729 15.4648 13.3354 15.4648 13.0521C15.4648 12.7687 15.5607 12.5312 15.7523 12.3396C15.944 12.1479 16.1815 12.0521 16.4648 12.0521C16.7482 12.0521 16.9857 12.1479 17.1773 12.3396C17.369 12.5312 17.4648 12.7687 17.4648 13.0521C17.4648 13.3354 17.369 13.5729 17.1773 13.7646C16.9857 13.9562 16.7482 14.0521 16.4648 14.0521ZM12.4648 18.0521C12.1815 18.0521 11.944 17.9562 11.7523 17.7646C11.5607 17.5729 11.4648 17.3354 11.4648 17.0521C11.4648 16.7687 11.5607 16.5312 11.7523 16.3396C11.944 16.1479 12.1815 16.0521 12.4648 16.0521C12.7482 16.0521 12.9857 16.1479 13.1773 16.3396C13.369 16.5312 13.4648 16.7687 13.4648 17.0521C13.4648 17.3354 13.369 17.5729 13.1773 17.7646C12.9857 17.9562 12.7482 18.0521 12.4648 18.0521ZM8.46484 18.0521C8.18151 18.0521 7.94401 17.9562 7.75234 17.7646C7.56068 17.5729 7.46484 17.3354 7.46484 17.0521C7.46484 16.7687 7.56068 16.5312 7.75234 16.3396C7.94401 16.1479 8.18151 16.0521 8.46484 16.0521C8.74818 16.0521 8.98568 16.1479 9.17734 16.3396C9.36901 16.5312 9.46484 16.7687 9.46484 17.0521C9.46484 17.3354 9.36901 17.5729 9.17734 17.7646C8.98568 17.9562 8.74818 18.0521 8.46484 18.0521ZM16.4648 18.0521C16.1815 18.0521 15.944 17.9562 15.7523 17.7646C15.5607 17.5729 15.4648 17.3354 15.4648 17.0521C15.4648 16.7687 15.5607 16.5312 15.7523 16.3396C15.944 16.1479 16.1815 16.0521 16.4648 16.0521C16.7482 16.0521 16.9857 16.1479 17.1773 16.3396C17.369 16.5312 17.4648 16.7687 17.4648 17.0521C17.4648 17.3354 17.369 17.5729 17.1773 17.7646C16.9857 17.9562 16.7482 18.0521 16.4648 18.0521ZM5.46484 22.0521C4.91484 22.0521 4.44401 21.8562 4.05234 21.4646C3.66068 21.0729 3.46484 20.6021 3.46484 20.0521V6.05206C3.46484 5.50206 3.66068 5.03123 4.05234 4.63956C4.44401 4.2479 4.91484 4.05206 5.46484 4.05206H6.46484V2.05206H8.46484V4.05206H16.4648V2.05206H18.4648V4.05206H19.4648C20.0148 4.05206 20.4857 4.2479 20.8773 4.63956C21.269 5.03123 21.4648 5.50206 21.4648 6.05206V20.0521C21.4648 20.6021 21.269 21.0729 20.8773 21.4646C20.4857 21.8562 20.0148 22.0521 19.4648 22.0521H5.46484ZM5.46484 20.0521H19.4648V10.0521H5.46484V20.0521Z" fill="#868686"/>
</g>
</svg>
