<svg width="25" height="25" viewBox="0 0 25 25" fill="none" xmlns="http://www.w3.org/2000/svg">
<mask id="mask0_37_716" style="mask-type:alpha" maskUnits="userSpaceOnUse" x="0" y="0" width="25" height="25">
<rect x="0.804688" y="0.0410156" width="24" height="24" fill="#D9D9D9"/>
</mask>
<g mask="url(#mask0_37_716)">
<path d="M21.7547 22.416L18.8047 19.466V21.691H16.8047V16.041H22.4547V18.041H20.2047L23.1547 20.991L21.7547 22.416ZM12.8047 22.041C11.4214 22.041 10.1214 21.7785 8.90469 21.2535C7.68802 20.7285 6.62969 20.016 5.72969 19.116C4.82969 18.216 4.11719 17.1577 3.59219 15.941C3.06719 14.7243 2.80469 13.4243 2.80469 12.041C2.80469 10.6577 3.06719 9.35768 3.59219 8.14102C4.11719 6.92435 4.82969 5.86602 5.72969 4.96602C6.62969 4.06602 7.68802 3.35352 8.90469 2.82852C10.1214 2.30352 11.4214 2.04102 12.8047 2.04102C14.188 2.04102 15.488 2.30352 16.7047 2.82852C17.9214 3.35352 18.9797 4.06602 19.8797 4.96602C20.7797 5.86602 21.4922 6.92435 22.0172 8.14102C22.5422 9.35768 22.8047 10.6577 22.8047 12.041C22.8047 12.3743 22.788 12.7077 22.7547 13.041C22.7214 13.3743 22.6714 13.7077 22.6047 14.041H20.5547C20.638 13.7077 20.7005 13.3743 20.7422 13.041C20.7839 12.7077 20.8047 12.3743 20.8047 12.041C20.8047 11.7077 20.7839 11.3743 20.7422 11.041C20.7005 10.7077 20.638 10.3743 20.5547 10.041H17.1547C17.2047 10.3743 17.2422 10.7077 17.2672 11.041C17.2922 11.3743 17.3047 11.7077 17.3047 12.041C17.3047 12.3743 17.2922 12.7077 17.2672 13.041C17.2422 13.3743 17.2047 13.7077 17.1547 14.041H15.1547C15.2047 13.7077 15.2422 13.3743 15.2672 13.041C15.2922 12.7077 15.3047 12.3743 15.3047 12.041C15.3047 11.7077 15.2922 11.3743 15.2672 11.041C15.2422 10.7077 15.2047 10.3743 15.1547 10.041H10.4547C10.4047 10.3743 10.3672 10.7077 10.3422 11.041C10.3172 11.3743 10.3047 11.7077 10.3047 12.041C10.3047 12.3743 10.3172 12.7077 10.3422 13.041C10.3672 13.3743 10.4047 13.7077 10.4547 14.041H13.8047V16.041H10.9047C11.1047 16.7577 11.363 17.4452 11.6797 18.1035C11.9964 18.7618 12.3714 19.391 12.8047 19.991C13.138 19.991 13.4714 19.9702 13.8047 19.9285C14.138 19.8869 14.4714 19.8493 14.8047 19.816V21.866C14.4714 21.8993 14.138 21.9368 13.8047 21.9785C13.4714 22.0202 13.138 22.041 12.8047 22.041ZM5.05469 14.041H8.45469C8.40469 13.7077 8.36719 13.3743 8.34219 13.041C8.31719 12.7077 8.30469 12.3743 8.30469 12.041C8.30469 11.7077 8.31719 11.3743 8.34219 11.041C8.36719 10.7077 8.40469 10.3743 8.45469 10.041H5.05469C4.97135 10.3743 4.90885 10.7077 4.86719 11.041C4.82552 11.3743 4.80469 11.7077 4.80469 12.041C4.80469 12.3743 4.82552 12.7077 4.86719 13.041C4.90885 13.3743 4.97135 13.7077 5.05469 14.041ZM5.90469 8.04102H8.85469C9.00469 7.42435 9.19219 6.82018 9.41719 6.22852C9.64219 5.63685 9.90469 5.05768 10.2047 4.49102C9.28802 4.79102 8.46302 5.24518 7.72969 5.85352C6.99635 6.46185 6.38802 7.19102 5.90469 8.04102ZM10.2047 19.591C9.90469 19.0243 9.64219 18.4452 9.41719 17.8535C9.19219 17.2618 9.00469 16.6577 8.85469 16.041H5.90469C6.38802 16.891 6.99635 17.6202 7.72969 18.2285C8.46302 18.8368 9.28802 19.291 10.2047 19.591ZM10.9047 8.04102H14.7047C14.5047 7.32435 14.2464 6.63685 13.9297 5.97852C13.613 5.32018 13.238 4.69102 12.8047 4.09102C12.3714 4.69102 11.9964 5.32018 11.6797 5.97852C11.363 6.63685 11.1047 7.32435 10.9047 8.04102ZM16.7547 8.04102H19.7047C19.2214 7.19102 18.613 6.46185 17.8797 5.85352C17.1464 5.24518 16.3214 4.79102 15.4047 4.49102C15.7047 5.05768 15.9672 5.63685 16.1922 6.22852C16.4172 6.82018 16.6047 7.42435 16.7547 8.04102Z" fill="#1C1B1F"/>
</g>
</svg>
