<svg width="25" height="25" viewBox="0 0 25 25" fill="none" xmlns="http://www.w3.org/2000/svg">
<circle cx="11.937" cy="12.626" r="6.93701" fill="white"/>
<mask id="mask0_37_702" style="mask-type:alpha" maskUnits="userSpaceOnUse" x="0" y="0" width="25" height="25">
<rect x="0.308594" y="0.625977" width="24" height="24" fill="#D9D9D9"/>
</mask>
<g mask="url(#mask0_37_702)">
<path d="M8.90859 23.126L7.00859 19.926L3.40859 19.126L3.75859 15.426L1.30859 12.626L3.75859 9.82598L3.40859 6.12598L7.00859 5.32598L8.90859 2.12598L12.3086 3.57598L15.7086 2.12598L17.6086 5.32598L21.2086 6.12598L20.8586 9.82598L23.3086 12.626L20.8586 15.426L21.2086 19.126L17.6086 19.926L15.7086 23.126L12.3086 21.676L8.90859 23.126ZM11.2586 16.176L16.9086 10.526L15.5086 9.07598L11.2586 13.326L9.10859 11.226L7.70859 12.626L11.2586 16.176Z" fill="#0ACF83"/>
</g>
</svg>
