<svg width="15" height="22" viewBox="0 0 15 22" fill="none" xmlns="http://www.w3.org/2000/svg">
<g clip-path="url(#clip0_37_944)">
<path d="M4.46533 21.0515C6.39733 21.0515 7.96533 19.4835 7.96533 17.5515V14.0515H4.46533C2.53333 14.0515 0.965332 15.6195 0.965332 17.5515C0.965332 19.4835 2.53333 21.0515 4.46533 21.0515Z" fill="#0ACF83"/>
<path d="M0.965332 10.5515C0.965332 8.61951 2.53333 7.05151 4.46533 7.05151H7.96533V14.0515H4.46533C2.53333 14.0515 0.965332 12.4835 0.965332 10.5515Z" fill="#A259FF"/>
<path d="M0.965332 3.55151C0.965332 1.61951 2.53333 0.0515137 4.46533 0.0515137H7.96533V7.05151H4.46533C2.53333 7.05151 0.965332 5.48351 0.965332 3.55151Z" fill="#F24E1E"/>
<path d="M7.96533 0.0515137H11.4653C13.3973 0.0515137 14.9653 1.61951 14.9653 3.55151C14.9653 5.48351 13.3973 7.05151 11.4653 7.05151H7.96533V0.0515137Z" fill="#FF7262"/>
<path d="M14.9653 10.5515C14.9653 12.4835 13.3973 14.0515 11.4653 14.0515C9.53333 14.0515 7.96533 12.4835 7.96533 10.5515C7.96533 8.61951 9.53333 7.05151 11.4653 7.05151C13.3973 7.05151 14.9653 8.61951 14.9653 10.5515Z" fill="#1ABCFE"/>
</g>
<defs>
<clipPath id="clip0_37_944">
<rect width="14" height="21" fill="white" transform="translate(0.965332 0.0515137)"/>
</clipPath>
</defs>
</svg>
