<svg width="95" height="94" viewBox="0 0 95 94" fill="none" xmlns="http://www.w3.org/2000/svg">
<path d="M92.5704 42.8017L51.5539 1.78822C50.992 1.22599 50.3248 0.779985 49.5905 0.475689C48.8562 0.171393 48.0692 0.0147705 47.2743 0.0147705C46.4795 0.0147705 45.6924 0.171393 44.9581 0.475689C44.2238 0.779985 43.5566 1.22599 42.9948 1.78822L34.4807 10.3064L45.2828 21.1085C46.5528 20.6772 47.9181 20.6099 49.2243 20.9141C50.5306 21.2184 51.7257 21.8821 52.6743 22.8301C53.6283 23.7851 54.2943 24.9892 54.596 26.3049C54.8977 27.6205 54.8231 28.9945 54.3806 30.2698L64.7953 40.6813C66.0708 40.2383 67.4454 40.1637 68.7614 40.466C70.0774 40.7683 71.2816 41.4354 72.2359 42.3907C72.9044 43.059 73.4347 43.8525 73.7964 44.7258C74.1582 45.5991 74.3444 46.5352 74.3444 47.4804C74.3444 48.4257 74.1582 49.3617 73.7964 50.235C73.4347 51.1084 72.9044 51.9018 72.2359 52.5702C70.8845 53.9202 69.0523 54.6786 67.1421 54.6786C65.2318 54.6786 63.3997 53.9202 62.0482 52.5702C61.0443 51.5646 60.3603 50.2845 60.0823 48.891C59.8043 47.4975 59.9448 46.0529 60.4861 44.739L50.7738 35.0298V60.5854C51.7989 61.0918 52.6887 61.8351 53.3693 62.7538C54.0499 63.6725 54.5019 64.7402 54.6878 65.8684C54.8736 66.9965 54.788 68.1527 54.4381 69.2412C54.0881 70.3297 53.4839 71.3192 52.6754 72.1277C52.007 72.7962 51.2135 73.3264 50.3402 73.6882C49.4669 74.05 48.5309 74.2362 47.5856 74.2362C46.6403 74.2362 45.7043 74.05 44.831 73.6882C43.9577 73.3264 43.1642 72.7962 42.4959 72.1277C41.8272 71.4593 41.2968 70.6657 40.935 69.7924C40.5731 68.919 40.3868 67.9828 40.3868 67.0374C40.3868 66.092 40.5731 65.1559 40.935 64.2825C41.2968 63.4091 41.8272 62.6155 42.4959 61.9471C43.1694 61.2723 43.97 60.7375 44.8514 60.3738V34.583C43.9736 34.2215 43.1759 33.6901 42.5041 33.0193C41.8323 32.3486 41.2997 31.5517 40.9368 30.6745C40.5739 29.7973 40.3879 28.857 40.3895 27.9077C40.3911 26.9583 40.5802 26.0187 40.946 25.1427L30.2952 14.4898L2.16841 42.6095C1.035 43.7451 0.398438 45.284 0.398438 46.8885C0.398437 48.493 1.035 50.0319 2.16841 51.1675L43.187 92.1861C44.3226 93.3192 45.8613 93.9556 47.4655 93.9556C49.0697 93.9556 50.6084 93.3192 51.744 92.1861L92.5704 51.3597C93.7038 50.2241 94.3403 48.6852 94.3403 47.0807C94.3403 45.4762 93.7038 43.9373 92.5704 42.8017Z" fill="#F03C2E"/>
</svg>
