<svg width="23" height="23" viewBox="0 0 23 23" fill="none" xmlns="http://www.w3.org/2000/svg">
<g clip-path="url(#clip0_37_669)">
<path fill-rule="evenodd" clip-rule="evenodd" d="M11.7713 1.09106C9.17623 1.09241 6.66622 2.01155 4.69012 3.68412C2.71402 5.35669 1.4007 7.67363 0.984973 10.2207C0.569251 12.7677 1.07824 15.3787 2.42094 17.5868C3.76363 19.7949 5.85247 21.4562 8.31396 22.2735C8.857 22.3743 9.06155 22.0377 9.06155 21.7515C9.06155 21.4653 9.05068 20.6356 9.04706 19.7285C6.00602 20.3854 5.36342 18.4452 5.36342 18.4452C4.86745 17.1853 4.15063 16.8541 4.15063 16.8541C3.15867 16.181 4.22485 16.1936 4.22485 16.1936C5.32361 16.271 5.90104 17.3149 5.90104 17.3149C6.8749 18.9762 8.45877 18.4956 9.08146 18.2148C9.1792 17.5111 9.4634 17.0323 9.77656 16.7605C7.34734 16.487 4.79504 15.5546 4.79504 11.3898C4.77998 10.3097 5.18309 9.26511 5.92095 8.47224C5.80872 8.19867 5.43402 7.09356 6.02774 5.59249C6.02774 5.59249 6.9455 5.30091 9.0344 6.70659C10.8261 6.2194 12.7165 6.2194 14.5083 6.70659C16.5954 5.30091 17.5113 5.59249 17.5113 5.59249C18.1068 7.08996 17.7321 8.19507 17.6199 8.47224C18.3601 9.26524 18.7641 10.3116 18.7476 11.3934C18.7476 15.5672 16.1899 16.487 13.7571 16.7551C14.1481 17.0935 14.4974 17.7541 14.4974 18.7692C14.4974 20.2234 14.4847 21.3934 14.4847 21.7515C14.4847 22.0413 14.682 22.3797 15.2359 22.2735C17.6977 21.4561 19.7868 19.7945 21.1294 17.586C22.4721 15.3775 22.9808 12.7661 22.5646 10.2189C22.1484 7.67162 20.8345 5.35466 18.8577 3.68237C16.881 2.01009 14.3704 1.09156 11.775 1.09106H11.7713Z" fill="#191717"/>
<path d="M4.97957 16.6976C4.95604 16.7515 4.86915 16.7677 4.79855 16.73C4.72796 16.6922 4.67547 16.622 4.70081 16.5662C4.72615 16.5104 4.81123 16.496 4.88182 16.5338C4.95242 16.5716 5.00672 16.6436 4.97957 16.6976Z" fill="#191717"/>
<path d="M5.42298 17.189C5.38549 17.2078 5.3426 17.213 5.30166 17.2038C5.26071 17.1946 5.22426 17.1716 5.19852 17.1386C5.12793 17.063 5.11344 16.9586 5.16774 16.9118C5.22205 16.865 5.3198 16.8866 5.3904 16.9622C5.46099 17.0378 5.47728 17.1422 5.42298 17.189Z" fill="#191717"/>
<path d="M5.85348 17.8135C5.78651 17.8603 5.67246 17.8135 5.60911 17.7199C5.59159 17.7031 5.57766 17.683 5.56814 17.6607C5.55862 17.6385 5.55371 17.6145 5.55371 17.5903C5.55371 17.5661 5.55862 17.5422 5.56814 17.5199C5.57766 17.4977 5.59159 17.4775 5.60911 17.4607C5.67608 17.4157 5.79013 17.4607 5.85348 17.5525C5.91684 17.6443 5.91865 17.7667 5.85348 17.8135V17.8135Z" fill="#191717"/>
<path d="M6.43842 18.4182C6.37869 18.4848 6.25741 18.4668 6.15785 18.3768C6.0583 18.2868 6.03476 18.1644 6.09449 18.0996C6.15423 18.0348 6.27551 18.0528 6.37869 18.141C6.48186 18.2292 6.50178 18.3534 6.43842 18.4182V18.4182Z" fill="#191717"/>
<path d="M7.2582 18.7711C7.23105 18.8556 7.10796 18.8934 6.98487 18.8574C6.86178 18.8214 6.78032 18.7207 6.80385 18.6343C6.82739 18.5479 6.95229 18.5083 7.07719 18.5479C7.20209 18.5875 7.28173 18.6829 7.2582 18.7711Z" fill="#191717"/>
<path d="M8.1529 18.8322C8.1529 18.9204 8.05154 18.996 7.92121 18.9978C7.79088 18.9996 7.68408 18.9276 7.68408 18.8394C7.68408 18.7513 7.78544 18.6757 7.91578 18.6739C8.04611 18.6721 8.1529 18.7423 8.1529 18.8322Z" fill="#191717"/>
<path d="M8.98511 18.6936C9.0014 18.7818 8.91089 18.8736 8.78056 18.8952C8.65023 18.9168 8.53619 18.8646 8.5199 18.7782C8.50361 18.6918 8.59774 18.5982 8.72445 18.5748C8.85116 18.5514 8.96882 18.6054 8.98511 18.6936Z" fill="#191717"/>
</g>
<defs>
<clipPath id="clip0_37_669">
<rect x="0.775391" y="0.541016" width="22" height="22" rx="6" fill="white"/>
</clipPath>
</defs>
</svg>
