<svg width="80" height="89" viewBox="0 0 80 89" fill="none" xmlns="http://www.w3.org/2000/svg">
<g clip-path="url(#clip0_37_760)">
<path d="M79.1337 77.5974C79.1499 80.7432 77.8283 83.7448 75.504 85.8401C73.1798 87.9354 70.0766 88.9229 66.9824 88.5518C61.4143 87.72 57.3339 82.8282 57.4696 77.1472V11.8331C57.3351 6.14594 61.4255 1.25172 67.001 0.428463C70.0922 0.06318 73.1903 1.05329 75.5102 3.14795C77.8301 5.2426 79.1493 8.2408 79.1337 11.3829V77.5974Z" fill="#F9AB00"/>
<path d="M10.9648 66.7742C16.9471 66.7742 21.7967 71.6703 21.7967 77.7099C21.7967 83.7495 16.9471 88.6456 10.9648 88.6456C4.98244 88.6456 0.132812 83.7495 0.132812 77.7099C0.132812 71.6703 4.98244 66.7742 10.9648 66.7742ZM39.466 33.6295C33.4553 33.9621 28.7919 39.0522 28.9313 45.1279V74.5024C28.9313 82.4744 32.4057 87.3138 37.4966 88.3455C40.6925 88.9994 44.0104 88.1676 46.532 86.0801C49.0535 83.9925 50.5115 80.8708 50.5024 77.5786V44.6214C50.5077 41.6784 49.3418 38.8566 47.2666 36.7897C45.1914 34.7229 42.3808 33.5842 39.466 33.6295Z" fill="#E37400"/>
</g>
<defs>
<clipPath id="clip0_37_760">
<rect width="79" height="88.48" fill="white" transform="translate(0.132812 0.354004)"/>
</clipPath>
</defs>
</svg>
