<svg width="23" height="20" viewBox="0 0 23 20" fill="none" xmlns="http://www.w3.org/2000/svg">
<g clip-path="url(#clip0_37_839)">
<path d="M1.97185 16.8824L2.94208 18.5115C3.14367 18.8545 3.43347 19.1239 3.77369 19.3199C4.74815 18.1175 5.42647 17.1948 5.80865 16.5517C6.19649 15.8991 6.67321 14.8784 7.2388 13.4895C5.71461 13.2945 4.55958 13.197 3.77369 13.197C3.01953 13.197 1.8645 13.2945 0.308594 13.4895C0.308594 13.8693 0.409397 14.249 0.611002 14.5919L1.97185 16.8824Z" fill="#0066DA"/>
<path d="M18.8436 19.3199C19.1838 19.1239 19.4736 18.8545 19.6752 18.5115L20.0784 17.8378L22.0063 14.5919C22.2079 14.249 22.3087 13.8693 22.3087 13.4895C20.7438 13.2945 19.5909 13.197 18.8499 13.197C18.0536 13.197 16.9007 13.2945 15.3911 13.4895C15.95 14.886 16.4204 15.9067 16.8024 16.5517C17.1877 17.2024 17.8681 18.1251 18.8436 19.3199Z" fill="#EA4335"/>
<path d="M11.3089 6.63026C12.4364 5.30653 13.2134 4.28581 13.6399 3.56809C13.9834 2.99017 14.3614 2.06744 14.7739 0.799889C14.4337 0.603908 14.0431 0.50592 13.6399 0.50592H8.97779C8.57458 0.50592 8.18397 0.616157 7.84375 0.799889C8.3685 2.25364 8.81378 3.28825 9.17957 3.90373C9.5838 4.58389 10.2936 5.49274 11.3089 6.63026Z" fill="#00832D"/>
<path d="M15.3788 13.4895H7.23901L3.77393 19.3199C4.11414 19.5159 4.50475 19.6139 4.90797 19.6139H17.7099C18.1131 19.6139 18.5037 19.5036 18.844 19.3199L15.3788 13.4895Z" fill="#2684FC"/>
<path d="M11.3087 6.63027L7.84362 0.799896C7.5034 0.995874 7.21358 1.26533 7.01198 1.60831L0.611002 12.3871C0.409397 12.7301 0.308594 13.1098 0.308594 13.4895H7.2388L11.3087 6.63027Z" fill="#00AC47"/>
<path d="M18.8058 6.99774L15.6053 1.60831C15.4037 1.26533 15.1139 0.995874 14.7737 0.799896L11.3086 6.63027L15.3785 13.4895H22.2961C22.2961 13.1098 22.1953 12.7301 21.9937 12.3871L18.8058 6.99774Z" fill="#FFBA00"/>
</g>
<defs>
<clipPath id="clip0_37_839">
<rect width="22" height="19.1304" fill="white" transform="translate(0.308594 0.50592)"/>
</clipPath>
</defs>
</svg>
