<svg width="95" height="100" viewBox="0 0 95 100" fill="none" xmlns="http://www.w3.org/2000/svg">
<g clip-path="url(#clip0_37_750)">
<path d="M93.8125 47.4296L51.491 5.33522L47.3901 1.25635L15.5315 32.944L0.963311 47.4296C0.235637 48.1572 -0.172852 49.1416 -0.172852 50.1678C-0.172852 51.194 0.235637 52.1785 0.963311 52.906L30.069 81.8555L47.3901 99.0793L79.2443 67.3916L79.7405 66.9025L93.8125 52.9278C94.1772 52.5678 94.4666 52.1395 94.6641 51.6677C94.8616 51.1958 94.9633 50.6898 94.9633 50.1787C94.9633 49.6677 94.8616 49.1616 94.6641 48.6898C94.4666 48.218 94.1772 47.7897 93.8125 47.4296ZM47.3901 64.6316L32.8483 50.1678L47.3901 35.704L61.9276 50.1678L47.3901 64.6316Z" fill="#2684FF"/>
<path d="M47.3903 35.704C42.8169 31.1562 40.2388 24.993 40.219 18.5608C40.1993 12.1285 42.7395 5.94978 47.2849 1.37427L15.4658 33.0095L32.7826 50.2333L47.3903 35.704Z" fill="url(#paint0_linear_37_750)"/>
<path d="M61.9671 50.1285L47.3901 64.6317C51.9808 69.199 54.5598 75.3928 54.5598 81.8511C54.5598 88.3094 51.9808 94.5033 47.3901 99.0706L79.297 67.3524L61.9671 50.1285Z" fill="url(#paint1_linear_37_750)"/>
</g>
<defs>
<linearGradient id="paint0_linear_37_750" x1="44.7866" y1="21.0699" x2="24.5891" y2="41.372" gradientUnits="userSpaceOnUse">
<stop offset="0.18" stop-color="#0052CC"/>
<stop offset="1" stop-color="#2684FF"/>
</linearGradient>
<linearGradient id="paint1_linear_37_750" x1="50.165" y1="79.0911" x2="70.3233" y2="58.8285" gradientUnits="userSpaceOnUse">
<stop offset="0.18" stop-color="#0052CC"/>
<stop offset="1" stop-color="#2684FF"/>
</linearGradient>
<clipPath id="clip0_37_750">
<rect width="94" height="99" fill="white" transform="translate(0.963379 0.667847)"/>
</clipPath>
</defs>
</svg>
