<svg width="21" height="21" viewBox="0 0 21 21" fill="none" xmlns="http://www.w3.org/2000/svg">
<path d="M4.83773 0.665771H16.1711C18.5461 0.665771 20.5044 2.6241 20.5044 4.9991V16.3324C20.5044 18.7074 18.5461 20.6658 16.1711 20.6658H4.83773C2.46273 20.6658 0.504395 18.7074 0.504395 16.3324V4.9991C0.504395 2.6241 2.46273 0.665771 4.83773 0.665771Z" fill="#FFD02F"/>
<path fill-rule="evenodd" clip-rule="evenodd" d="M14.3792 3.16577H12.1709L14.0042 6.3741L10.0042 3.16577H7.7959L9.7959 7.08244L5.62923 3.16577H3.4209L5.62923 8.16577L3.4209 18.1658H5.62923L9.83756 7.45744L7.7959 18.1658H10.0042L14.0459 6.7491L12.2126 18.1658H14.4209L18.4209 5.66577L14.3792 3.16577Z" fill="#050038"/>
</svg>
