<svg width="31" height="31" viewBox="0 0 31 31" fill="none" xmlns="http://www.w3.org/2000/svg">
<path fill-rule="evenodd" clip-rule="evenodd" d="M12.7975 6.90651C9.92819 7.12829 7.48856 7.32235 7.37767 7.33621C7.05886 7.40552 6.76776 7.61344 6.62915 7.90454L6.50439 8.15404L6.51826 14.1699L6.53212 20.1859L6.71232 20.5601C6.82321 20.768 7.51629 21.7383 8.27867 22.7225C9.78958 24.6909 9.90047 24.7879 10.4688 24.8572C10.6351 24.8711 11.8965 24.8156 13.2411 24.7324C14.5995 24.6493 16.7897 24.5107 18.0926 24.4413C23.6788 24.0948 23.3877 24.1225 23.7204 23.8453C24.1224 23.5126 24.0808 24.0671 24.1085 16.7482C24.1224 10.5521 24.1085 10.1362 24.0115 9.95604C23.9145 9.73426 23.7204 9.59564 21.1699 7.80751C19.4649 6.60155 19.3402 6.54611 18.5778 6.53224C18.259 6.51838 15.653 6.69858 12.7975 6.90651Z" fill="white"/>
<path fill-rule="evenodd" clip-rule="evenodd" d="M12.7975 6.90651C9.92819 7.12829 7.48856 7.32235 7.37767 7.33621C7.05886 7.40552 6.76776 7.61344 6.62915 7.90454L6.50439 8.15404L6.51826 14.1699L6.53212 20.1859L6.71232 20.5601C6.82321 20.768 7.51629 21.7383 8.27867 22.7225C9.78958 24.6909 9.90047 24.7879 10.4688 24.8572C10.6351 24.8711 11.8965 24.8156 13.2411 24.7324C14.5995 24.6493 16.7897 24.5107 18.0926 24.4413C23.6788 24.0948 23.3877 24.1225 23.7204 23.8453C24.1224 23.5126 24.0808 24.0671 24.1085 16.7482C24.1224 10.5521 24.1085 10.1362 24.0115 9.95604C23.9145 9.73426 23.7204 9.59564 21.1699 7.80751C19.4649 6.60155 19.3402 6.54611 18.5778 6.53224C18.259 6.51838 15.653 6.69858 12.7975 6.90651ZM19.2431 7.69661C19.4926 7.80751 21.2531 9.02732 21.5026 9.26297C21.5719 9.33227 21.5996 9.40158 21.558 9.42931C21.4887 9.49861 10.5797 10.1501 10.2609 10.0947C10.1223 10.0808 9.91433 9.99763 9.78958 9.91446C9.29056 9.56792 8.05689 8.55603 8.05689 8.48672C8.05689 8.29266 8.0153 8.29266 12.8668 7.93226C13.7956 7.87681 15.3342 7.76592 16.2629 7.68275C18.2728 7.53027 18.8689 7.53027 19.2431 7.69661ZM22.7085 10.8293C22.7917 10.9125 22.861 11.065 22.8887 11.2174C22.9026 11.3561 22.9164 13.9343 22.9026 16.9284C22.8887 22.0572 22.8749 22.3898 22.7778 22.5285C22.7224 22.6255 22.6115 22.7225 22.5145 22.7502C22.2788 22.8473 10.8569 23.4988 10.6213 23.4295C10.5104 23.4017 10.3579 23.3047 10.2886 23.2215L10.15 23.0829L10.1361 17.5383C10.1223 13.6432 10.1361 11.9244 10.1777 11.7719C10.2054 11.661 10.3025 11.5224 10.3718 11.467C10.4688 11.3976 11.148 11.3422 13.4767 11.2036C15.1124 11.1204 17.6491 10.9679 19.0907 10.8709C22.556 10.663 22.5422 10.663 22.7085 10.8293Z" fill="black"/>
<path fill-rule="evenodd" clip-rule="evenodd" d="M19.6452 12.7281C19.0215 12.7697 18.467 12.8251 18.4116 12.8667C18.2175 12.9637 18.1066 13.1301 18.0789 13.3103C18.065 13.4905 18.1205 13.5182 18.7442 13.6014L19.0076 13.6291V16.0826C19.0076 17.538 18.9938 18.4945 18.9522 18.4668C18.9244 18.439 18.1205 17.1915 17.1502 15.7222C16.1799 14.2251 15.3759 13.0053 15.362 13.0053C15.3482 12.9914 14.7244 13.0192 13.962 13.0746C13.0333 13.1301 12.5204 13.1994 12.4234 13.2548C12.257 13.338 12.063 13.6429 12.063 13.837C12.063 13.9618 12.2848 14.0311 12.7422 14.0311H12.9917V21.0727L12.5897 21.1975C12.2986 21.2806 12.1877 21.3361 12.1323 21.4608C12.0491 21.6549 12.0491 21.8212 12.1462 21.8212C12.1739 21.8212 12.8254 21.7935 13.5739 21.7381C15.0432 21.6549 15.2096 21.6133 15.362 21.3084C15.4175 21.2252 15.4591 21.1282 15.4591 21.0866C15.4591 21.0727 15.2511 21.0034 15.0155 20.948C14.766 20.8925 14.5165 20.8232 14.461 20.8232C14.364 20.7955 14.364 20.6153 14.364 18.1479V15.5004L16.1106 18.2311C17.9403 21.1004 18.1621 21.4331 18.4532 21.5717C18.7997 21.7519 19.6868 21.6272 20.1304 21.3361L20.269 21.2529L20.2829 17.344L20.2967 13.4212L20.6017 13.3657C20.9621 13.2964 21.1284 13.1301 21.1284 12.839C21.1284 12.6588 21.1146 12.6449 20.9482 12.6588C20.8512 12.6588 20.2552 12.7004 19.6452 12.7281Z" fill="black"/>
</svg>
