<svg width="105" height="95" viewBox="0 0 105 95" fill="none" xmlns="http://www.w3.org/2000/svg">
<g clip-path="url(#clip0_37_785)">
<path d="M86.0245 31.3591C84.9456 30.9822 83.8277 30.6257 82.6766 30.2884C82.8658 29.5049 83.0395 28.7314 83.1938 27.9711C85.7281 15.4868 84.0711 5.42936 78.413 2.11803C72.9875 -1.05711 64.1146 2.25348 55.1534 10.1679C54.2917 10.929 53.4275 11.7347 52.5638 12.5792C51.9882 12.0205 51.4136 11.4805 50.8405 10.9641C41.4489 2.50146 32.0352 -1.06481 26.3826 2.25611C20.9623 5.44045 19.3572 14.8954 21.6384 26.7269C21.8587 27.8697 22.1162 29.0367 22.4074 30.2233C21.0751 30.6071 19.7889 31.0162 18.5582 31.4515C7.54754 35.3473 0.515625 41.453 0.515625 47.7862C0.515625 54.3271 8.06439 60.8878 19.5329 64.8659C20.4379 65.1798 21.377 65.4766 22.3448 65.7584C22.0307 67.0417 21.7574 68.2993 21.5281 69.5259C19.3529 81.152 21.0516 90.3836 26.4574 93.5478C32.0411 96.8156 41.4122 93.4567 50.5373 85.3619C51.2585 84.7221 51.9823 84.0435 52.7074 83.3322C53.6473 84.2507 54.5856 85.12 55.519 85.9353C64.3577 93.6542 73.0873 96.7711 78.4881 93.598C84.0663 90.3209 85.8792 80.4039 83.5256 68.3384C83.3458 67.4169 83.1367 66.4755 82.9017 65.5174C83.5598 65.3199 84.2059 65.1161 84.8359 64.9042C96.7584 60.8953 104.516 54.4145 104.516 47.7862C104.516 41.4301 97.2569 35.2833 86.0245 31.3591ZM83.4386 60.6244C82.8699 60.8155 82.2864 61.0001 81.6918 61.1792C80.3756 56.9505 78.5992 52.4539 76.4254 47.8081C78.4998 43.273 80.2075 38.8339 81.4869 34.6327C82.5508 34.9451 83.5833 35.2746 84.5783 35.6224C94.2023 38.9846 100.073 43.9557 100.073 47.7862C100.073 51.8662 93.7328 57.1628 83.4386 60.6244ZM79.1672 69.214C80.2079 74.5493 80.3565 79.3729 79.6672 83.1438C79.0477 86.5322 77.8021 88.7912 76.2619 89.696C72.9844 91.6213 65.9754 89.1187 58.4165 82.5174C57.5499 81.7607 56.6771 80.9527 55.8015 80.0975C58.7319 76.845 61.6607 73.0638 64.5191 68.8644C69.5467 68.4117 74.2967 67.6715 78.6042 66.6609C78.8164 67.5294 79.0048 68.3812 79.1672 69.214ZM35.9716 89.3633C32.7694 90.511 30.219 90.5439 28.6773 89.6417C25.3969 87.7215 24.0331 80.3094 25.8933 70.3668C26.1064 69.2281 26.36 68.0585 26.6523 66.8629C30.9127 67.8189 35.6278 68.5069 40.6675 68.9215C43.5451 73.0307 46.5585 76.8078 49.5952 80.115C48.9317 80.765 48.2709 81.3839 47.6137 81.967C43.5787 85.5464 39.5351 88.086 35.9716 89.3633ZM20.9697 60.5994C15.8986 58.8404 11.7107 56.5543 8.84004 54.0596C6.2606 51.8178 4.95829 49.5921 4.95829 47.7862C4.95829 43.943 10.6042 39.041 20.0206 35.7091C21.1632 35.3049 22.3592 34.9239 23.6005 34.566C24.9019 38.8621 26.609 43.3538 28.6692 47.8959C26.5824 52.5054 24.8509 57.0686 23.5368 61.4151C22.6519 61.157 21.7946 60.8853 20.9697 60.5994ZM25.9985 25.861C24.044 15.7241 25.3421 8.07716 28.6085 6.15829C32.0878 4.11411 39.7815 7.02867 47.8904 14.3357C48.4088 14.8028 48.9291 15.2916 49.451 15.7973C46.4293 19.0901 43.4435 22.8388 40.5914 26.9238C35.7002 27.3838 31.0182 28.1229 26.7134 29.1126C26.4428 28.0077 26.2031 26.9223 25.9985 25.861ZM70.8594 37.1027C69.8303 35.2988 68.7738 33.5376 67.6968 31.8244C71.0151 32.2501 74.1943 32.8152 77.1799 33.5068C76.2836 36.4221 75.1664 39.4702 73.8513 42.595C72.9079 40.7774 71.9101 38.9448 70.8594 37.1027ZM52.5652 19.0196C54.6145 21.2727 56.6667 23.7883 58.6853 26.5176C56.6512 26.4201 54.5919 26.3694 52.5156 26.3694C50.459 26.3694 48.4149 26.419 46.3934 26.5148C48.414 23.8108 50.4839 21.2986 52.5652 19.0196ZM34.1539 37.1339C33.1259 38.9429 32.1467 40.7656 31.2181 42.5916C29.9243 39.4778 28.8175 36.4157 27.9134 33.4591C30.8806 32.7852 34.0449 32.2342 37.342 31.8166C36.2498 33.5455 35.1846 35.3197 34.1539 37.1336V37.1339ZM37.437 64.0774C34.0304 63.6917 30.8186 63.1691 27.8521 62.5138C28.7706 59.5043 29.9019 56.3769 31.2231 53.196C32.1541 55.0207 33.1372 56.8441 34.1715 58.6571H34.1717C35.2252 60.504 36.3166 62.3131 37.437 64.0774ZM52.6882 76.8705C50.5824 74.5649 48.4821 72.0144 46.4308 69.271C48.4221 69.3502 50.4523 69.3908 52.5156 69.3908C54.6354 69.3908 56.731 69.3424 58.7935 69.2492C56.7684 72.042 54.7235 74.5964 52.6882 76.8705ZM73.8937 53.0338C75.2837 56.2492 76.4555 59.3602 77.3859 62.3184C74.3705 63.0165 71.1149 63.5788 67.6846 63.9966C68.7642 62.2603 69.83 60.4688 70.8772 58.6261C71.9366 56.7617 72.9425 54.8945 73.8937 53.0338ZM67.0287 56.3735C65.403 59.2342 63.734 61.965 62.0396 64.5427C58.9535 64.7667 55.7652 64.882 52.5156 64.882C49.2792 64.882 46.1311 64.78 43.0996 64.5803C41.3369 61.9688 39.6316 59.2299 38.0162 56.3982H38.0166C36.4055 53.5741 34.9227 50.7263 33.5791 47.8944C34.9223 45.0559 36.4012 42.2048 38.0031 39.3859L38.0027 39.3865C39.6088 36.56 41.2991 33.8344 43.0455 31.2392C46.1385 31.002 49.3101 30.8782 52.5154 30.8782H52.5156C55.7354 30.8782 58.9111 31.0029 62.0031 31.2422C63.7229 33.8185 65.4017 36.5352 67.0141 39.362C68.6448 42.2206 70.1428 45.0527 71.4975 47.8303C70.1469 50.6556 68.6522 53.5163 67.0287 56.3735ZM76.1938 6.02415C79.6764 8.06232 81.0307 16.2822 78.8426 27.0611C78.7031 27.7489 78.5459 28.4494 78.3752 29.1594C74.0605 28.149 69.3751 27.3972 64.4697 26.9301C61.612 22.8003 58.6506 19.0458 55.6782 15.7953C56.4773 15.0151 57.2754 14.2711 58.0701 13.5691C65.7481 6.78802 72.9242 4.11073 76.1938 6.02415ZM52.5156 38.3615C57.6445 38.3615 61.8025 42.5809 61.8025 47.7862C61.8025 52.9912 57.6445 57.2109 52.5156 57.2109C47.3867 57.2109 43.2288 52.9912 43.2288 47.7862C43.2288 42.5809 47.3867 38.3615 52.5156 38.3615Z" fill="#00D8FF"/>
</g>
<defs>
<clipPath id="clip0_37_785">
<rect width="104" height="94" fill="white" transform="translate(0.515625 0.923035)"/>
</clipPath>
</defs>
</svg>
